# xmcd
#
# Track frame offsets: 
#        150
#        7721
#        40978
#        56310
#        77656
#        99413
#        116039
#        130936
#        152459
#        201037
#        227400
#        250514
#
# Disc length: 3612 seconds
#
# Revision: 0
# Processed by: cddbd v1.4PL0 Copyright (c) Steve Scherf et al.
# Submitted via: ExactAudioCopy v0.90b4
#
DISCID=7f0e1a0c
DTITLE=Emmylou Harris - Trädgår'n Göteborg
DYEAR=2000
DGENRE=Country
TTITLE0=Band intro
TTITLE1=Bang the drum slowly
TTITLE2=Calling my children home
TTITLE3=Hickory wind
TTITLE4=Michelangelo
TTITLE5=Boy from Tupelo
TTITLE6=Wheels
TTITLE7=Born to run
TTITLE8=The maker
TTITLE9=Pancho and Lefty
TTITLE10=Get up John
TTITLE11=Don't tell me
EXTD=
EXTT0=
EXTT1=
EXTT2=
EXTT3=
EXTT4=
EXTT5=
EXTT6=
EXTT7=
EXTT8=
EXTT9=
EXTT10=
EXTT11=
PLAYORDER=
